<?xml version="1.0" standalone="no"?><!DOCTYPE svg PUBLIC "-//W3C//DTD SVG 1.1//EN" "http://www.w3.org/Graphics/SVG/1.1/DTD/svg11.dtd"><svg t="1535956198572" class="icon" style="" viewBox="0 0 1879 1024" version="1.1" xmlns="http://www.w3.org/2000/svg" p-id="15203" xmlns:xlink="http://www.w3.org/1999/xlink" width="117.4375" height="64"><defs><style type="text/css"></style></defs><path d="M1528.305202 490.543353l-415.815029-417.146821c-9.47052-9.47052-21.900578-14.649711-35.366474-14.649711-13.465896 0-26.043931 5.327168-35.662427 14.797688-18.053179 18.201156-19.828902 46.46474-4.143353 66.441618l338.275145 339.310983h-988.48555c-27.523699 0-50.016185 22.492486-50.016185 50.312139 0 27.671676 22.492486 50.312139 50.016185 50.312138h988.48555L1029.031214 927.371098c-10.358382 20.716763-7.250867 44.689017 8.434682 60.22659 9.322543 9.322543 21.900578 14.353757 35.514451 14.353757 14.945665 0 29.151445-6.067052 40.101734-16.869364l27.671676-27.671676 76.208093-76.35607 14.353757-14.057803 296.989595-298.025434c9.766474-9.914451 14.797688-23.380347 14.057804-38.178034v-2.071677c0.739884-14.797688-4.291329-28.411561-14.057804-38.178034m0 0z" fill="#8a8a8a" p-id="15204"></path></svg>