<?xml version="1.0" standalone="no"?><!DOCTYPE svg PUBLIC "-//W3C//DTD SVG 1.1//EN" "http://www.w3.org/Graphics/SVG/1.1/DTD/svg11.dtd"><svg t="1535954982057" class="icon" style="" viewBox="0 0 1024 1024" version="1.1" xmlns="http://www.w3.org/2000/svg" p-id="13796" xmlns:xlink="http://www.w3.org/1999/xlink" width="64" height="64"><defs><style type="text/css"></style></defs><path d="M480 565.333333h-25.6c-55.466667 0-100.266667-44.8-100.266667-100.266666v-155.733334c0-55.466667 44.8-100.266667 100.266667-100.266666h25.6c55.466667 0 100.266667 44.8 100.266667 100.266666v155.733334c0 55.466667-44.8 100.266667-100.266667 100.266666z" fill="#8a8a8a" p-id="13797"></path><path d="M669.866667 260.266667h-78.933334c-12.8 0-21.333333-8.533333-21.333333-21.333334s8.533333-21.333333 21.333333-21.333333h78.933334c12.8 0 21.333333 8.533333 21.333333 21.333333s-8.533333 21.333333-21.333333 21.333334zM433.066667 260.266667h-78.933334c-12.8 0-21.333333-8.533333-21.333333-21.333334s8.533333-21.333333 21.333333-21.333333h78.933334c12.8 0 21.333333 8.533333 21.333333 21.333333s-8.533333 21.333333-21.333333 21.333334zM669.866667 352h-78.933334c-12.8 0-21.333333-8.533333-21.333333-21.333333s8.533333-21.333333 21.333333-21.333334h78.933334c12.8 0 21.333333 8.533333 21.333333 21.333334s-8.533333 21.333333-21.333333 21.333333zM433.066667 352h-78.933334c-12.8 0-21.333333-8.533333-21.333333-21.333333s8.533333-21.333333 21.333333-21.333334h78.933334c12.8 0 21.333333 8.533333 21.333333 21.333334s-8.533333 21.333333-21.333333 21.333333zM669.866667 441.6h-78.933334c-12.8 0-21.333333-8.533333-21.333333-21.333333s8.533333-21.333333 21.333333-21.333334h78.933334c12.8 0 21.333333 8.533333 21.333333 21.333334s-8.533333 21.333333-21.333333 21.333333zM433.066667 441.6h-78.933334c-12.8 0-21.333333-8.533333-21.333333-21.333333s8.533333-21.333333 21.333333-21.333334h78.933334c12.8 0 21.333333 8.533333 21.333333 21.333334s-8.533333 21.333333-21.333333 21.333333z" fill="#8a8a8a" p-id="13798"></path><path d="M529.066667 601.6h-34.133334c-89.6 0-162.133333-72.533333-162.133333-162.133333V221.866667c0-89.6 72.533333-162.133333 162.133333-162.133334h34.133334c89.6 0 162.133333 72.533333 162.133333 162.133334v217.6c0 89.6-72.533333 162.133333-162.133333 162.133333zM494.933333 102.4c-66.133333 0-119.466667 53.333333-119.466666 119.466667v217.6c0 66.133333 53.333333 119.466667 119.466666 119.466666h34.133334c66.133333 0 119.466667-53.333333 119.466666-119.466666V221.866667c0-66.133333-53.333333-119.466667-119.466666-119.466667h-34.133334z" fill="#8a8a8a" p-id="13799"></path><path d="M458.666667 710.4h-4.266667c-147.2-23.466667-253.866667-136.533333-253.866667-266.666667v-91.733333c0-12.8 8.533333-21.333333 21.333334-21.333333s21.333333 8.533333 21.333333 21.333333v91.733333c0 108.8 91.733333 204.8 219.733333 224 10.666667 2.133333 19.2 12.8 17.066667 23.466667-2.133333 10.666667-10.666667 19.2-21.333333 19.2zM565.333333 710.4c-10.666667 0-19.2-8.533333-21.333333-17.066667-2.133333-10.666667 6.4-23.466667 17.066667-23.466666 125.866667-21.333333 219.733333-115.2 219.733333-224v-91.733334c0-12.8 8.533333-21.333333 21.333333-21.333333s21.333333 8.533333 21.333334 21.333333v91.733334c0 130.133333-106.666667 243.2-253.866667 266.666666-2.133333-2.133333-4.266667-2.133333-4.266667-2.133333z" fill="#8a8a8a" p-id="13800"></path><path d="M458.666667 872.533333c-12.8 0-21.333333-8.533333-21.333334-21.333333v-157.866667c0-12.8 8.533333-21.333333 21.333334-21.333333s21.333333 8.533333 21.333333 21.333333v157.866667c0 12.8-8.533333 21.333333-21.333333 21.333333zM565.333333 872.533333c-12.8 0-21.333333-8.533333-21.333333-21.333333v-157.866667c0-12.8 8.533333-21.333333 21.333333-21.333333s21.333333 8.533333 21.333334 21.333333v157.866667c0 12.8-10.666667 21.333333-21.333334 21.333333z" fill="#8a8a8a" p-id="13801"></path><path d="M300.8 896h420.266667v44.8H300.8z" fill="#8a8a8a" p-id="13802"></path><path d="M503.466667 964.266667c-243.2 0-249.6-17.066667-253.866667-29.866667-4.266667-8.533333 0-19.2 6.4-25.6 46.933333-40.533333 117.333333-66.133333 200.533333-74.666667 12.8-2.133333 21.333333 6.4 23.466667 19.2 2.133333 10.666667-6.4 21.333333-19.2 23.466667-53.333333 4.266667-102.4 19.2-140.8 40.533333 87.466667 8.533333 294.4 8.533333 381.866667 0-38.4-21.333333-87.466667-36.266667-140.8-40.533333-10.666667-2.133333-19.2-10.666667-19.2-23.466667s10.666667-21.333333 23.466666-19.2c81.066667 8.533333 151.466667 34.133333 198.4 74.666667 8.533333 6.4 10.666667 17.066667 8.533334 25.6-4.266667 14.933333-10.666667 29.866667-256 32-4.266667-2.133333-8.533333-2.133333-12.8-2.133333z m234.666666-23.466667z" fill="#8a8a8a" p-id="13803"></path></svg>