<?xml version="1.0" standalone="no"?><!DOCTYPE svg PUBLIC "-//W3C//DTD SVG 1.1//EN" "http://www.w3.org/Graphics/SVG/1.1/DTD/svg11.dtd"><svg t="1536737978149" class="icon" style="" viewBox="0 0 1024 1024" version="1.1" xmlns="http://www.w3.org/2000/svg" p-id="6960" xmlns:xlink="http://www.w3.org/1999/xlink" width="64" height="64"><defs><style type="text/css"></style></defs><path d="M894.780952 48.761905C938.666667 48.761905 975.238095 85.333333 975.238095 129.219048l0 765.561905c0 43.885714-36.571429 80.457143-80.457143 80.457143L129.219048 975.238095C85.333333 975.238095 48.761905 938.666667 48.761905 894.780952L48.761905 129.219048C48.761905 85.333333 85.333333 48.761905 129.219048 48.761905L894.780952 48.761905M894.780952 0 129.219048 0C58.514286 0 0 58.514286 0 129.219048l0 765.561905C0 965.485714 58.514286 1024 129.219048 1024l765.561905 0c70.704762 0 129.219048-58.514286 129.219048-129.219048L1024 129.219048C1021.561905 58.514286 963.047619 0 894.780952 0L894.780952 0z" p-id="6961" fill="#707070"></path><path d="M748.495238 385.219048 351.085714 385.219048l90.209524-90.209524c7.314286-7.314286 7.314286-17.066667 0-21.942857l-21.942857-21.942857c-2.438095-7.314286-17.066667-7.314286-21.942857 0l-134.095238 134.095238c-2.438095 2.438095-4.87619 4.87619-4.87619 9.752381-2.438095 2.438095-2.438095 4.87619-2.438095 7.314286l0 31.695238c0 9.752381 7.314286 17.066667 17.066667 17.066667l480.304762 0c9.752381 0 17.066667-7.314286 17.066667-17.066667l0-31.695238C765.561905 390.095238 758.247619 385.219048 748.495238 385.219048z" p-id="6962" fill="#707070"></path><path d="M753.371429 512 273.066667 512c-9.752381 0-17.066667 7.314286-17.066667 12.190476l0 31.695238c0 9.752381 0 19.504762 31.695238 19.504762l375.466667 0-80.457143 78.019048c-7.314286 7.314286-7.314286 17.066667 0 21.942857l21.942857 21.942857c7.314286 7.314286 17.066667 7.314286 21.942857 0l131.657143-124.342857c9.752381-4.87619 9.752381-12.190476 9.752381-14.628571l0-31.695238C765.561905 519.314286 758.247619 512 753.371429 512z" p-id="6963" fill="#707070"></path></svg>