<?xml version="1.0" standalone="no"?><!DOCTYPE svg PUBLIC "-//W3C//DTD SVG 1.1//EN" "http://www.w3.org/Graphics/SVG/1.1/DTD/svg11.dtd"><svg t="1536743908821" class="icon" style="" viewBox="0 0 1024 1024" version="1.1" xmlns="http://www.w3.org/2000/svg" p-id="16709" xmlns:xlink="http://www.w3.org/1999/xlink" width="64" height="64"><defs><style type="text/css"></style></defs><path d="M801.2 171.8c-185.8-33.8-325.2-10.3-325.2-10.3-166.7 20.5-243.3 148.9-243.3 148.9l0 17.3 138.6 0L371.3 223.8l147.3 32.7 144.1-32.7 0 103.9 121.3 0C635.2 248.3 801.2 171.8 801.2 171.8z" p-id="16710"></path><path d="M865.1 427.3c-29.4 0-56.1 11.1-76.4 29.3l0-53-1.1-40.2L624.3 363.4c-9.1 0-16.1-12.3-16.1-21.5l0-79-86 54.7c-5.5 3.5-12.4 3.4-17.8-0.1l-83.5-54.3L420.9 342c0 9.2-7 21.5-16.1 21.5l-171 0-1.1 40.2 0 54.6c-20.5-19.2-47.9-30.9-78.1-30.9C91.3 427.3 40 478.9 40 542.5c0 63.6 51.3 115.1 114.6 115.1 32.7 0 62.2-13.7 83.1-35.8 26.4 143.3 154.2 209.3 273 209.3 118.4 0 245.7-65.5 272.7-207.8 20.8 21.2 49.7 34.3 81.6 34.3 63.3 0 114.6-51.5 114.6-115.1C979.7 478.9 928.4 427.3 865.1 427.3zM152.9 605.7c-9.8-34.4-26.9-50.7-61.3-62.5 33.8-5.7 52.3-24.5 60-58.1 10.1 33.1 27.1 51.6 60.6 61.3C178.7 554.4 161.6 570.8 152.9 605.7zM389.4 623.3c-19.1 0-34.6-38.8-34.6-86.6s15.5-86.6 34.6-86.6c19.1 0 34.6 38.8 34.6 86.6S408.6 623.3 389.4 623.3zM632 623.3c-19.1 0-34.6-38.8-34.6-86.6s15.5-86.6 34.6-86.6c19.1 0 34.6 38.8 34.6 86.6S651.1 623.3 632 623.3zM866.8 605.7c-13.8-35-25.2-54.6-58.8-62.7 33.5-9.6 49.9-24.8 60-58 7.7 33.6 26.3 52.4 60.1 58.1C893.7 555 876.6 571.3 866.8 605.7z" p-id="16711"></path></svg>