<?xml version="1.0" standalone="no"?><!DOCTYPE svg PUBLIC "-//W3C//DTD SVG 1.1//EN" "http://www.w3.org/Graphics/SVG/1.1/DTD/svg11.dtd"><svg t="1536743775286" class="icon" style="" viewBox="0 0 1024 1024" version="1.1" xmlns="http://www.w3.org/2000/svg" p-id="14015" xmlns:xlink="http://www.w3.org/1999/xlink" width="64" height="64"><defs><style type="text/css"></style></defs><path d="M343.364255 384.271944m-70.916143 0a69.301 69.301 0 1 0 141.832286 0 69.301 69.301 0 1 0-141.832286 0Z" p-id="14016"></path><path d="M680.630628 384.271944m-70.916143 0a69.301 69.301 0 1 0 141.832286 0 69.301 69.301 0 1 0-141.832286 0Z" p-id="14017"></path><path d="M511.983627 65.357544c-246.264776 0-446.63427 200.353121-446.63427 446.63427 0 17.740036 14.368242 32.124651 32.124651 32.124651 17.756409 0 32.124651-14.383592 32.124651-32.124651 0-210.847126 171.538865-382.38599 382.384967-382.38599 210.877825 0 382.416689 171.538865 382.416689 382.38599 0 210.862475-171.538865 382.40134-382.416689 382.40134-143.712099 0-273.997398-79.400375-339.970972-207.191876-8.156774-15.795754-27.575032-21.975501-43.293015-13.818727-15.748682 8.140401-21.928429 27.51261-13.803377 43.276642 77.047794 149.264559 229.199099 241.983263 397.067364 241.983263 246.296499 0 446.664969-200.36847 446.664969-446.64962S758.280126 65.357544 511.983627 65.357544z" p-id="14018"></path><path d="M512.01535 698.16498c-51.574632 0-98.254791-32.469506-116.231211-80.812537-6.149047-16.626679-24.626887-25.034163-41.315988-18.916838-16.626679 6.179746-25.097608 24.673959-18.916838 41.315988 27.2926 73.361845 98.19237 122.661667 176.464037 122.661667 78.209246 0 149.107993-49.222051 176.401616-122.489752 6.211469-16.61133-2.227738-35.119869-18.854417-41.315988-16.626679-6.196119-35.136242 2.258437-41.315988 18.885116C610.239442 665.742547 563.52756 698.16498 512.01535 698.16498z" p-id="14019"></path></svg>