<?xml version="1.0" standalone="no"?><!DOCTYPE svg PUBLIC "-//W3C//DTD SVG 1.1//EN" "http://www.w3.org/Graphics/SVG/1.1/DTD/svg11.dtd"><svg t="1536743859554" class="icon" style="" viewBox="0 0 1024 1024" version="1.1" xmlns="http://www.w3.org/2000/svg" p-id="15392" xmlns:xlink="http://www.w3.org/1999/xlink" width="64" height="64"><defs><style type="text/css"></style></defs><path d="M990.457 510.592c0-263.897-214.695-478.592-478.592-478.592s-478.598 214.695-478.598 478.592c0 237.719 174.252 435.442 401.715 472.337 23.148 5.757 49.722 9.062 77.069 9.065 26.278 0 51.996-3.195 76.692-9.058 227.469-36.902 401.715-234.625 401.715-472.343zM114.503 510.592c0-219.102 178.26-397.356 397.362-397.356s397.356 178.253 397.356 397.356c0 86.578-27.919 166.718-75.103 232.059 6.746-25.014 10.622-53.734 10.622-83.359 0-0.063 0-0.127 0-0.189v-189.129h-665.754v189.139c0 28.839 3.697 56.839 10.628 83.545-47.192-65.348-75.11-145.488-75.11-232.066zM511.865 907.947c-20.58 0-40.794-1.578-60.542-4.603-109.609-27.173-191.109-126.343-191.109-244.231v-107.903h503.288v107.896c0 117.888-81.501 217.058-191.102 244.231-18.145 2.933-39.061 4.611-60.369 4.611-0.058 0-0.116 0-0.174 0z" fill="#231815" p-id="15393"></path><path d="M493.648 390.707h-81.236c0-41.545-33.794-75.34-75.326-75.34-41.545 0-75.34 33.794-75.34 75.34h-81.236c0-86.334 70.236-156.577 156.577-156.577 86.328 0 156.563 70.236 156.563 156.577zM841.692 390.707h-81.236c0-41.545-33.787-75.34-75.326-75.34-41.545 0-75.34 33.794-75.34 75.34h-81.236c0-86.334 70.242-156.577 156.577-156.577 86.328 0 156.563 70.236 156.563 156.577z" fill="#231815" p-id="15394"></path></svg>