<?xml version="1.0" standalone="no"?><!DOCTYPE svg PUBLIC "-//W3C//DTD SVG 1.1//EN" "http://www.w3.org/Graphics/SVG/1.1/DTD/svg11.dtd"><svg t="1536743864875" class="icon" style="" viewBox="0 0 1024 1024" version="1.1" xmlns="http://www.w3.org/2000/svg" p-id="15530" xmlns:xlink="http://www.w3.org/1999/xlink" width="64" height="64"><defs><style type="text/css"></style></defs><path d="M511.29472 0C228.98304 0 0 229.71136 0 511.76064c0 282.04288 228.98304 510.82752 511.29472 510.82752s511.29472-228.78464 511.29472-510.82752C1022.58816 229.71136 793.60512 0 511.29472 0L511.29472 0zM303.40224 185.4144c49.19936 0 89.10592 53.16864 89.10592 118.67136 0 65.50912-39.90656 118.67136-89.10592 118.67136-49.14816 0-89.06112-53.16224-89.06112-118.67136C214.34112 238.58304 254.25408 185.4144 303.40224 185.4144L303.40224 185.4144zM719.17952 185.4144c49.16096 0 89.06752 53.16864 89.06752 118.67136 0 65.50912-39.90656 118.67136-89.06752 118.67136-49.18656 0-89.09312-53.16224-89.09312-118.67136C630.08768 238.58304 669.99424 185.4144 719.17952 185.4144L719.17952 185.4144zM303.40224 244.75008c-32.7616 0-59.37408 26.59328-59.37408 59.33568 0 32.7552 26.61248 59.33568 59.37408 59.33568 32.8128 0 59.41248-26.58048 59.41248-59.33568C362.81472 271.34464 336.21504 244.75008 303.40224 244.75008L303.40224 244.75008zM719.17952 244.75008c-32.8 0-59.40608 26.59328-59.40608 59.33568 0 32.7552 26.60608 59.33568 59.40608 59.33568 32.7744 0 59.38048-26.58048 59.38048-59.33568C778.56 271.34464 751.95392 244.75008 719.17952 244.75008L719.17952 244.75008zM511.29472 564.73088c178.16704 0 356.37248 3.89888 356.37248 73.10848 0 175.776-159.64544 289.27104-356.37248 289.27104-196.72064 0-356.36608-113.49504-356.36608-289.27104C154.92864 568.62976 333.13408 564.73088 511.29472 564.73088L511.29472 564.73088z" p-id="15531"></path></svg>