<?xml version="1.0" standalone="no"?><!DOCTYPE svg PUBLIC "-//W3C//DTD SVG 1.1//EN" "http://www.w3.org/Graphics/SVG/1.1/DTD/svg11.dtd"><svg t="1536743900273" class="icon" style="" viewBox="0 0 1024 1024" version="1.1" xmlns="http://www.w3.org/2000/svg" p-id="16578" xmlns:xlink="http://www.w3.org/1999/xlink" width="64" height="64"><defs><style type="text/css"></style></defs><path d="M512 170.666667c-187.733333 0-341.333333 153.6-341.333333 341.333333s153.6 341.333333 341.333333 341.333333 341.333333-153.6 341.333333-341.333333-153.6-341.333333-341.333333-341.333333z m0 85.333333c140.8 0 256 115.2 256 256s-115.2 256-256 256-256-115.2-256-256 115.2-256 256-256z m128 426.666667v-17.066667c0-59.733333-55.466667-110.933333-128-110.933333s-128 51.2-128 110.933333v17.066667m85.333333-213.333334V384H384v85.333333h85.333333z m170.666667 0V384h-85.333333v85.333333h85.333333z" fill="#444444" p-id="16579"></path></svg>