<?xml version="1.0" standalone="no"?><!DOCTYPE svg PUBLIC "-//W3C//DTD SVG 1.1//EN" "http://www.w3.org/Graphics/SVG/1.1/DTD/svg11.dtd"><svg t="1536743894591" class="icon" style="" viewBox="0 0 1024 1024" version="1.1" xmlns="http://www.w3.org/2000/svg" p-id="16447" xmlns:xlink="http://www.w3.org/1999/xlink" width="64" height="64"><defs><style type="text/css"></style></defs><path d="M512 64C262.4 64 64 262.4 64 512s198.4 448 448 448 448-198.4 448-448S761.6 64 512 64zM268.8 371.2 249.6 377.6 230.4 320l256-89.6 12.8 51.2L480 288 499.2 320c12.8 38.4 0 83.2-25.6 115.2C512 435.2 550.4 460.8 563.2 505.6l6.4 25.6 25.6-6.4L614.4 576l-256 96L339.2 614.4l12.8-6.4L345.6 588.8C332.8 544 339.2 499.2 364.8 467.2c-38.4-6.4-64-32-89.6-76.8L268.8 371.2zM870.4 524.8l-76.8-44.8c25.6 121.6-32 230.4-128 300.8-115.2 64-262.4 57.6-364.8-38.4-12.8-6.4-12.8-25.6-6.4-38.4 6.4-6.4 19.2-6.4 32 0 89.6 83.2 217.6 89.6 313.6 32 89.6-51.2 128-160 115.2-256l-51.2 64c-6.4 12.8-19.2 12.8-32 6.4-6.4-6.4-12.8-19.2-6.4-32l76.8-102.4c0-6.4 6.4-6.4 6.4-6.4 6.4 0 6.4 0 6.4 0l6.4 0c6.4 0 6.4 0 6.4 0l121.6 70.4c6.4 6.4 12.8 25.6 12.8 38.4L896 524.8C883.2 524.8 876.8 537.6 870.4 524.8zM537.6 512l6.4 25.6L384 595.2 377.6 569.6C364.8 524.8 384 480 428.8 467.2 473.6 454.4 518.4 467.2 537.6 512zM313.6 384 294.4 364.8l153.6-57.6 6.4 25.6c25.6 44.8 0 89.6-44.8 115.2C371.2 454.4 326.4 428.8 313.6 384z" p-id="16448"></path></svg>