<?xml version="1.0" standalone="no"?><!DOCTYPE svg PUBLIC "-//W3C//DTD SVG 1.1//EN" "http://www.w3.org/Graphics/SVG/1.1/DTD/svg11.dtd"><svg t="1536743791458" class="icon" style="" viewBox="0 0 1024 1024" version="1.1" xmlns="http://www.w3.org/2000/svg" p-id="14197" xmlns:xlink="http://www.w3.org/1999/xlink" width="64" height="64"><defs><style type="text/css"></style></defs><path d="M510.4 1007.5c-265.1 0-480.8-215.8-480.8-481.1S245.3 45.2 510.4 45.2 991.1 261 991.1 526.3 775.5 1007.5 510.4 1007.5zM510.4 93.3c-238.6 0-432.7 194.3-432.7 433.1s194.1 433.1 432.7 433.1 432.7-194.3 432.7-433.1S749 93.3 510.4 93.3z" p-id="14198"></path><path d="M659.9 534.2c-49.3 0-89.4-40.1-89.4-89.4s40.1-89.4 89.4-89.4 89.4 40.1 89.4 89.4S709.2 534.2 659.9 534.2zM659.9 403.5c-22.8 0-41.3 18.5-41.3 41.3s18.5 41.3 41.3 41.3 41.3-18.5 41.3-41.3S682.6 403.5 659.9 403.5z" p-id="14199"></path><path d="M318.6 550.2 293.2 509.4 385.8 451.8 291.1 378.1 320.6 340.1 469.8 456.1Z" p-id="14200"></path><path d="M514.1 800c-1 0-1.9 0-2.9 0C375.6 798.1 280 669.1 276 663.6l38.8-28.4c0.8 1.2 85.8 115.3 197.3 116.6 0.7 0 1.3 0 2 0 65.6 0 129.2-39.4 189.1-117.1l38.1 29.3C671.8 754.3 595.4 800 514.1 800z" p-id="14201"></path></svg>