<?xml version="1.0" standalone="no"?><!DOCTYPE svg PUBLIC "-//W3C//DTD SVG 1.1//EN" "http://www.w3.org/Graphics/SVG/1.1/DTD/svg11.dtd"><svg t="1535954208485" class="icon" style="" viewBox="0 0 1027 1024" version="1.1" xmlns="http://www.w3.org/2000/svg" p-id="8318" xmlns:xlink="http://www.w3.org/1999/xlink" width="200.5859375" height="200"><defs><style type="text/css"></style></defs><path d="M327.234783 512m-60.104348 0a2.7 2.7 0 1 0 120.208696 0 2.7 2.7 0 1 0-120.208696 0Z" p-id="8319" fill="#bfbfbf"></path><path d="M512 512m-60.104348 0a2.7 2.7 0 1 0 120.208696 0 2.7 2.7 0 1 0-120.208696 0Z" p-id="8320" fill="#bfbfbf"></path><path d="M696.765217 512m-60.104348 0a2.7 2.7 0 1 0 120.208696 0 2.7 2.7 0 1 0-120.208696 0Z" p-id="8321" fill="#bfbfbf"></path><path d="M943.86087 756.869565l31.165217-51.2c0 0 0-2.226087 2.226087-2.226087 31.165217-60.104348 48.973913-129.113043 48.973913-198.121739 0-233.73913-189.217391-422.956522-422.956522-422.956522L422.956522 82.365217c-233.73913 0-422.956522 189.217391-422.956522 422.956522 0 233.73913 189.217391 422.956522 422.956522 422.956522L601.043478 928.278261c69.008696 0 138.017391-17.808696 200.347826-51.2l122.434783 57.878261c4.452174 2.226087 11.130435 4.452174 15.582609 4.452174 8.904348 0 17.808696-2.226087 24.486957-8.904348 11.130435-8.904348 15.582609-24.486957 13.356522-37.843478L943.86087 756.869565zM910.469565 667.826087l-40.069565 62.330435c-4.452174 8.904348-6.678261 20.034783-4.452174 28.93913l17.808696 75.686957-69.008696-31.165217c-11.130435-4.452174-24.486957-4.452174-35.617391 2.226087-53.426087 33.391304-115.756522 48.973913-178.086957 48.973913L422.956522 854.817391c-191.443478 0-347.269565-155.826087-347.269565-347.269565 0-191.443478 155.826087-347.269565 347.269565-347.269565L601.043478 160.278261c191.443478 0 347.269565 155.826087 347.269565 347.269565C950.53913 563.2 937.182609 618.852174 910.469565 667.826087z" p-id="8322" fill="#bfbfbf"></path></svg>