<?xml version="1.0" standalone="no"?><!DOCTYPE svg PUBLIC "-//W3C//DTD SVG 1.1//EN" "http://www.w3.org/Graphics/SVG/1.1/DTD/svg11.dtd"><svg t="1536722477244" class="icon" style="" viewBox="0 0 1024 1024" version="1.1" xmlns="http://www.w3.org/2000/svg" p-id="3931" xmlns:xlink="http://www.w3.org/1999/xlink" width="64" height="64"><defs><style type="text/css"></style></defs><path d="M669.866667 260.266667h-78.933334c-12.8 0-21.333333-8.533333-21.333333-21.333334s8.533333-21.333333 21.333333-21.333333h78.933334c12.8 0 21.333333 8.533333 21.333333 21.333333s-8.533333 21.333333-21.333333 21.333334zM435.2 260.266667h-78.933333c-12.8 0-21.333333-8.533333-21.333334-21.333334s8.533333-21.333333 21.333334-21.333333h78.933333c12.8 0 21.333333 8.533333 21.333333 21.333333s-10.666667 21.333333-21.333333 21.333334zM669.866667 352h-78.933334c-12.8 0-21.333333-8.533333-21.333333-21.333333s8.533333-21.333333 21.333333-21.333334h78.933334c12.8 0 21.333333 8.533333 21.333333 21.333334s-8.533333 21.333333-21.333333 21.333333zM435.2 352h-78.933333c-12.8 0-21.333333-8.533333-21.333334-21.333333s8.533333-21.333333 21.333334-21.333334h78.933333c12.8 0 21.333333 8.533333 21.333333 21.333334s-10.666667 21.333333-21.333333 21.333333zM669.866667 441.6h-78.933334c-12.8 0-21.333333-8.533333-21.333333-21.333333s8.533333-21.333333 21.333333-21.333334h78.933334c12.8 0 21.333333 8.533333 21.333333 21.333334s-8.533333 21.333333-21.333333 21.333333zM435.2 441.6h-78.933333c-12.8 0-21.333333-8.533333-21.333334-21.333333s8.533333-21.333333 21.333334-21.333334h78.933333c12.8 0 21.333333 8.533333 21.333333 21.333334s-10.666667 21.333333-21.333333 21.333333z" fill="#bfbfbf" p-id="3932"></path><path d="M529.066667 601.6h-34.133334c-89.6 0-162.133333-72.533333-162.133333-162.133333V221.866667c0-89.6 72.533333-162.133333 162.133333-162.133334h34.133334c89.6 0 162.133333 72.533333 162.133333 162.133334v217.6c0 89.6-72.533333 162.133333-162.133333 162.133333zM494.933333 102.4c-66.133333 0-119.466667 53.333333-119.466666 119.466667v217.6c0 66.133333 53.333333 119.466667 119.466666 119.466666h34.133334c66.133333 0 119.466667-53.333333 119.466666-119.466666V221.866667c0-66.133333-53.333333-119.466667-119.466666-119.466667h-34.133334z" fill="#bfbfbf" p-id="3933"></path><path d="M460.8 710.4h-4.266667C309.333333 686.933333 202.666667 576 202.666667 443.733333v-89.6c0-12.8 8.533333-21.333333 21.333333-21.333333s21.333333 8.533333 21.333333 21.333333v89.6c0 108.8 91.733333 202.666667 217.6 224 10.666667 2.133333 19.2 12.8 17.066667 23.466667 0 10.666667-8.533333 19.2-19.2 19.2zM565.333333 710.4c-10.666667 0-19.2-8.533333-21.333333-17.066667-2.133333-10.666667 6.4-23.466667 17.066667-23.466666 125.866667-19.2 217.6-115.2 217.6-224v-89.6c0-12.8 8.533333-21.333333 21.333333-21.333334s21.333333 8.533333 21.333333 21.333334v89.6c0 130.133333-106.666667 243.2-253.866666 266.666666 0-2.133333-2.133333-2.133333-2.133334-2.133333z" fill="#bfbfbf" p-id="3934"></path><path d="M460.8 872.533333c-12.8 0-21.333333-8.533333-21.333333-21.333333v-157.866667c0-12.8 8.533333-21.333333 21.333333-21.333333s21.333333 8.533333 21.333333 21.333333v157.866667c0 10.666667-10.666667 21.333333-21.333333 21.333333zM565.333333 872.533333c-12.8 0-21.333333-8.533333-21.333333-21.333333v-157.866667c0-12.8 8.533333-21.333333 21.333333-21.333333s21.333333 8.533333 21.333334 21.333333v157.866667c0 10.666667-10.666667 21.333333-21.333334 21.333333z" fill="#bfbfbf" p-id="3935"></path><path d="M505.6 964.266667c-241.066667 0-247.466667-17.066667-253.866667-29.866667-4.266667-8.533333 0-19.2 6.4-25.6 46.933333-40.533333 117.333333-66.133333 198.4-74.666667 12.8-2.133333 21.333333 6.4 23.466667 19.2 2.133333 10.666667-6.4 21.333333-19.2 23.466667-53.333333 6.4-102.4 19.2-140.8 40.533333 87.466667 8.533333 292.266667 8.533333 379.733333 0-38.4-21.333333-87.466667-34.133333-138.666666-40.533333-10.666667-2.133333-19.2-10.666667-19.2-23.466667 2.133333-10.666667 10.666667-21.333333 23.466666-19.2 81.066667 8.533333 151.466667 34.133333 198.4 74.666667 8.533333 6.4 10.666667 17.066667 8.533334 25.6-4.266667 14.933333-10.666667 29.866667-256 32-2.133333-2.133333-6.4-2.133333-10.666667-2.133333zM738.133333 938.666667z" fill="#bfbfbf" p-id="3936"></path></svg>